<svg width="268" height="269" xmlns="http://www.w3.org/2000/svg" preserveAspectRatio="xMidYMid meet" version="1.0">
 <metadata>Created by potrace 1.16, written by Peter Selinger 2001-2019</metadata>

 <g>
  <title>Layer 1</title>
  <g id="svg_1" fill="#000000" transform="translate(0 269) scale(0.1 -0.1)">
   <path fill="#FABA6F" id="svg_2" d="m1725,2146c-28,-12 -70,-53 -226,-221c-36,-38 -97,-103 -135,-143l-69,-73l-50,16c-85,25 -94,23 -242,-82c-76,-53 -170,-119 -210,-146c-72,-50 -107,-97 -205,-274c-13,-23 -49,-88 -81,-143c-68,-118 -69,-136 -4,-177c23,-15 44,-28 46,-30c2,-1 -11,-52 -29,-112c-34,-111 -34,-141 -3,-141c10,0 81,32 158,70c77,39 146,70 153,70c7,0 24,-7 37,-16c20,-13 39,-15 88,-10c76,8 85,8 167,0c45,-4 78,-1 107,9c37,12 51,13 100,1c80,-19 277,-18 405,3c102,16 109,16 121,0c11,-16 31,-17 182,-15l170,3l3,407c2,380 1,408 -15,416c-25,13 -285,15 -317,2c-18,-7 -26,-17 -26,-34c0,-34 -9,-37 -68,-22c-57,16 -222,111 -222,129c0,12 27,43 114,137c109,118 194,219 201,239c17,56 -17,117 -78,140c-35,13 -35,13 -72,-3zm69,-72c27,-26 18,-53 -35,-109l-51,-54l-34,26c-19,14 -34,31 -34,38c0,17 105,115 124,115c8,0 22,-7 30,-16zm-172,-181c15,-15 28,-32 28,-39c0,-11 -113,-141 -269,-310c-31,-33 -85,-94 -121,-134c-36,-41 -86,-97 -111,-124c-25,-28 -61,-68 -79,-88c-32,-38 -33,-38 -106,-38c-41,0 -74,3 -74,8c0,7 35,47 149,167c114,121 210,225 380,408c91,97 167,177 170,177c3,0 18,-12 33,-27zm-385,-237c3,-3 -52,-67 -122,-143c-71,-76 -178,-191 -238,-255c-60,-65 -116,-118 -123,-118c-22,0 -86,-62 -101,-98c-9,-23 -12,-49 -7,-79l7,-46l-39,8c-40,7 -94,34 -94,47c0,4 17,35 38,70c22,35 58,97 82,138c24,41 54,92 67,112c12,21 23,41 23,45c1,25 87,98 245,209c168,116 183,124 218,120c21,-2 41,-7 44,-10zm335,-116c72,-51 172,-98 229,-108l44,-8l3,-294l2,-295l-77,-14c-43,-7 -98,-17 -123,-21c-65,-12 -207,-12 -275,1c-63,11 -120,37 -171,75c-30,23 -37,24 -223,24c-220,0 -243,6 -262,71c-14,44 -2,72 44,99c29,18 52,20 217,20c205,0 246,7 291,51c38,37 49,74 49,164l0,71l91,102c50,56 94,102 97,102c3,0 32,-18 64,-40zm575,-384c2,-235 -1,-344 -8,-353c-12,-14 -219,-20 -219,-5c0,88 -1,646 0,670l0,33l113,-3l112,-3l2,-339zm-1394,-308c20,-7 37,-16 37,-19c0,-8 -201,-112 -206,-107c-2,2 4,33 14,68c15,58 20,66 47,72c34,7 54,5 108,-14z"/>
  </g>
 </g>
</svg>